<svg width="3040" height="420" viewBox="0 0 3040 420" fill="none" xmlns="http://www.w3.org/2000/svg">
<rect width="3040" height="420" transform="matrix(1 -8.74228e-08 -8.74228e-08 -1 0 420)" fill="#D9D9D9"/>
<rect opacity="0.5" width="389" height="111" transform="matrix(-1 0 0 1 3040 309)" fill="#00FD19"/>
<rect width="150" height="100" transform="matrix(-1 0 0 1 2956 219)" fill="#4D4D4D"/>
<rect width="130" height="80" transform="matrix(-1 0 0 1 2946 229)" fill="#00FD19"/>
<path d="M2515 172L2585 220.5L2655 269L2585 317.5L2515 366L2445 317.5L2375 269L2445 220.5L2515 172Z" fill="#BEBEBE"/>
<circle cx="75" cy="75" r="75" transform="matrix(-1 0 0 1 2590 194)" fill="#00FD19"/>
<circle cx="60" cy="60" r="60" transform="matrix(-1 0 0 1 2575 209)" fill="#4C4C4C"/>
<rect width="250" height="100" rx="50" transform="matrix(-1 0 0 1 2272 219)" fill="#4C4C4C"/>
<rect width="140" height="140" rx="70" transform="matrix(-1 0 0 1 236 199)" fill="#565656"/>
<rect width="90" height="90" rx="45" transform="matrix(-1 0 0 1 211 224)" fill="#D71B1B"/>
<rect width="247" height="247" rx="123.5" transform="matrix(-1 0 0 1 650 121.5)" fill="#BDBDBD"/>
<rect width="130" height="100" transform="matrix(-1 0 0 1 2212 219)" fill="#00FD19"/>
<rect width="120" height="120" rx="60" transform="matrix(-1 0 0 1 226 209)" fill="#00FD19"/>
<rect width="218" height="218" rx="109" transform="matrix(-1 0 0 1 635 136)" fill="#00FD19"/>
</svg>
